<svg id="Layer_1" data-name="Layer 1" xmlns="http://www.w3.org/2000/svg" viewBox="0 0 2120 873"><defs><style>.cls-1{fill:#fff;}</style></defs><title>Artboard 1</title><path class="cls-1" d="M459,1c12.41,1.29,24.86,2.28,37.23,3.92,62.49,8.26,120.62,29,173.62,63,98.55,63.31,162.68,151.86,191.46,265.53,12.59,49.7,15.58,100.22,9.89,151.21C860.42,581.26,821.92,665.25,755.52,736,689.61,806.22,608.87,850,514,866.9c-19.44,3.46-39.33,4.46-59,6.6-1.32.14-2.63.33-3.95.5H423c-1.32-.17-2.63-.44-3.95-.5-28.84-1.27-57.38-4.93-85.37-12.07Q163.35,818,68.15,670.15c-34.16-53.09-55-111.34-63.24-174C3.28,483.83,2.29,471.39,1,459V412a23.84,23.84,0,0,0,.85-3.75,405.88,405.88,0,0,1,11.74-75.87Q54,174.36,187,79.83c59.92-42.51,126.8-67.59,199.85-76Q399.44,2.39,412,1ZM820,437.68c.57-209.1-168.81-383.17-382.82-383-212.6.13-382.77,172-382.53,382.87C54.89,650.23,225.75,816.33,430,820,646,823.94,820.27,649.45,820,437.68Z"/><path class="cls-1" d="M2121,349h-67.68V586.73h-74.47V348.84h-68v-59c1.6-.11,3.18-.31,4.77-.31q100.5,0,201,0a39,39,0,0,1,4.42.48Z"/><path class="cls-1" d="M1686.16,289.86a14.62,14.62,0,0,1,2-.3c35.15.14,70.3-.06,105.44.62a104.35,104.35,0,0,1,42.89,10.47c30.57,14.57,45.65,39.63,48.41,72.65,1.31,15.69.3,31.26-5.17,46.27-7.06,19.36-19.93,33.57-38.08,43.12-1.74.92-3.51,1.81-5.62,2.89l72.27,121.2c-1.79.16-3,.37-4.21.37-23.66,0-47.32-.06-71,.1-3.39,0-4.93-1.23-6.45-4.07-16.85-31.55-34-62.95-50.68-94.59-2.81-5.33-6-7.9-11.88-6.78a24.61,24.61,0,0,1-4,0V586.71h-73.94Zm73.93,133c6.8,0,13.3.53,19.69-.1,21.3-2.1,32.67-13,33.79-33.54,1.15-21.18-6.25-30.3-19.87-35.9-10.77-4.42-22.06-4-33.61-3.59Z"/><path class="cls-1" d="M1415.09,440.72c.43-31,4.09-61.1,17.06-89.37,15.06-32.82,38.87-55.76,75.13-62.6,33.06-6.24,65.06-3.44,93.44,17.25,20.08,14.64,32.5,34.76,39.27,58.13,14.9,51.43,14.88,102.91-3.21,153.61-10.14,28.42-28.19,50.85-55.8,64.44-17.33,8.54-36,10.31-55,9.64-26.81-.93-51.12-8.42-71-27.41-17.69-16.94-27.48-38.16-33-61.59C1417.15,482.31,1415.55,461.42,1415.09,440.72Zm160.15-7.25c-.54-8-.9-20.87-2.4-33.56-1.72-14.62-5-28.89-15.31-40.39-11.45-12.78-34-13.57-46.32-1.57-10.38,10.15-14.77,23.19-17.17,36.93-4.63,26.42-4.08,53.05-1.64,79.62a90.8,90.8,0,0,0,13.2,40.37c11.71,18.78,42.23,19.56,54.14.51a80.94,80.94,0,0,0,8-16C1574.65,479.6,1574.59,458.88,1575.24,433.47Z"/><path class="cls-1" d="M1264.17,490v96.85h-73.89V289.75c1.82-.09,3.44-.24,5.06-.24,30.49,0,61-.17,91.48.05,18.66.13,36.72,3.53,53.66,11.79,24.68,12,39.91,31.69,46.22,58.12a121.86,121.86,0,0,1-2.11,64.66c-10.44,34.17-34,54.56-68.69,61.67-12.79,2.62-26.06,3-39.13,4.14C1272.82,490.3,1268.82,490,1264.17,490Zm.2-59.2c10.22-1.18,20-1.48,29.44-3.61,12.2-2.76,19.64-11.11,22.48-23.46a67.65,67.65,0,0,0,.44-29.19c-1.65-8-5.65-14.42-13-18.59-12.34-7-25.67-6.8-39.36-6.19Z"/><path class="cls-1" d="M959.66,514c8,2.51,15.8,5.14,23.73,7.44,21.54,6.24,43.37,10.52,66,8.56a73.47,73.47,0,0,0,10.81-1.81c8.78-2.09,15.66-6.44,17.93-15.95,2.46-10.32.48-20-8.06-26.09-10.77-7.65-22.69-13.7-34.24-20.21-14.19-8-29-14.95-42.7-23.73-46.13-29.59-42.46-93.74-16-122.11,15.89-17,35.72-26.62,58.07-30.85,34.42-6.52,68.25-3.4,101.29,8.35,3.35,1.19,4.49,2.82,4.46,6.41-.2,18.5-.09,37-.1,55.49,0,1.29-.13,2.59-.21,4-10.48-3.34-20.65-6.9-31-9.82a125.79,125.79,0,0,0-53.4-3.58,37.5,37.5,0,0,0-10.43,3.24c-12,5.75-14.75,20.84-5.62,30.66,8.12,8.73,18.87,13.44,29.14,19,17.7,9.52,35.81,18.47,52.61,29.42,18.53,12.06,31.07,29.32,33.51,52.05,2.91,27.26-.22,53.42-19,75.18-14.54,16.88-34,25.42-55.44,29.34-40.41,7.39-79.88,2.52-118.46-10.84-1.41-.49-3.23-2.56-3.25-3.91-.2-19.49-.12-39-.09-58.48A8.33,8.33,0,0,1,959.66,514Z"/><path class="cls-1" d="M401.79,430.2c5.78,5,11.39,9,15.95,13.94,33.77,36.55,25.08,98.22-17.43,125.49-17.51,11.23-36.91,16-57.39,16.11-40,.3-80,.09-120,.08-.8,0-1.6-.12-2.67-.21V288.45c1.58-.1,3-.27,4.48-.27,35.65,0,71.31-.15,107,0,22.84.12,44.65,4.35,64,17.52,41.76,28.41,45.81,89.8,8.06,123.32A10.61,10.61,0,0,1,401.79,430.2ZM287.16,520.91c15.45,0,30.46.76,45.35-.22,13.57-.9,22.85-9,25.48-19.75,4.55-18.47-6.27-34.13-26-35.77-14.56-1.22-29.27-.64-43.91-.83-.26,0-.53.35-1,.65ZM287.32,348v55.9c14.77,0,29.27.68,43.68-.19s24.16-8.79,27-20c4.51-17.88-5.53-33.64-24.44-35.44C318.4,346.84,303,348,287.32,348Z"/><path class="cls-1" d="M669.17,288.51v68.74h-69V585.49h-72.3V357.73H461.18V288.51Z"/></svg>